<?xml version="1.0" standalone="no"?>
<!DOCTYPE svg PUBLIC "-//W3C//DTD SVG 20010904//EN"
 "http://www.w3.org/TR/2001/REC-SVG-20010904/DTD/svg10.dtd">
<svg version="1.0" xmlns="http://www.w3.org/2000/svg"
 width="520.000000pt" height="182.000000pt" viewBox="0 0 520.000000 182.000000"
 preserveAspectRatio="xMidYMid meet">

<g transform="translate(0.000000,182.000000) scale(0.100000,-0.100000)"
fill="#000000" stroke="none">
<path d="M792 1418 c-17 -17 -15 -36 8 -102 13 -39 15 -56 7 -52 -91 38 -191
45 -210 14 -18 -28 9 -48 66 -48 38 0 69 -9 126 -37 71 -36 82 -38 167 -38 84
0 95 3 155 34 45 24 83 36 128 40 44 4 67 11 74 23 30 47 -69 65 -164 29 l-51
-20 6 22 c43 150 46 147 -148 147 -105 0 -156 -4 -164 -12z"/>
<path d="M713 1143 c-44 -22 -92 -73 -118 -123 -29 -59 -44 -123 -54 -240 -7
-80 -15 -110 -50 -186 -22 -51 -41 -106 -41 -123 0 -42 22 -83 57 -107 26 -18
54 -19 438 -22 458 -3 456 -3 502 67 31 46 29 69 -13 164 -20 45 -42 100 -49
122 -10 34 -18 41 -48 48 -57 14 -124 79 -142 139 -19 66 -11 118 31 179 35
52 34 54 -23 83 -30 15 -34 15 -90 -12 -51 -24 -70 -27 -158 -27 -87 0 -107 4
-157 27 -52 24 -58 25 -85 11z m267 -183 c5 -45 5 -45 50 -50 37 -4 45 -9 45
-25 0 -18 -8 -20 -88 -25 -73 -4 -91 -9 -103 -24 -17 -25 -18 -37 -1 -60 10
-14 33 -20 87 -25 63 -6 76 -11 96 -35 49 -56 18 -148 -55 -162 -27 -6 -30
-11 -33 -48 -2 -33 -7 -41 -23 -41 -16 0 -21 8 -23 42 l-3 42 -52 3 c-41 2
-53 7 -55 22 -6 29 16 36 110 36 78 0 88 2 98 21 9 16 8 26 -5 45 -14 21 -23
24 -76 24 -56 0 -64 3 -95 34 -25 25 -34 43 -34 68 0 48 33 96 72 106 28 7 33
13 36 43 4 50 10 61 29 57 13 -2 19 -16 23 -48z"/>
<path d="M1323 1079 c-55 -27 -83 -72 -83 -135 0 -90 63 -154 151 -154 160 0
209 220 65 289 -53 26 -80 26 -133 0z m87 -78 c0 -26 4 -30 33 -33 24 -2 32
-8 32 -23 0 -14 -8 -21 -30 -25 -24 -4 -31 -11 -35 -35 -3 -17 -11 -30 -20
-30 -9 0 -17 13 -20 30 -4 24 -11 31 -35 35 -22 4 -30 11 -30 25 0 15 8 21 33
23 28 3 32 7 32 33 0 22 5 29 20 29 15 0 20 -7 20 -29z"/>
<path d="M1621 1091 c-13 -3 -29 -14 -35 -24 -9 -14 -7 -21 10 -35 32 -26 36
-48 28 -166 -5 -88 -10 -112 -25 -124 -24 -21 -24 -39 0 -52 42 -22 151 -4
151 24 0 7 -9 19 -20 29 -15 13 -20 29 -20 67 0 27 2 50 5 50 3 0 23 -38 44
-85 26 -55 45 -85 56 -85 10 0 29 28 52 80 20 44 40 80 46 80 16 0 1 -89 -19
-111 -16 -18 -17 -21 -1 -36 22 -22 136 -30 177 -13 34 14 38 35 13 63 -15 16
-18 39 -18 137 0 98 3 121 18 137 38 43 7 73 -76 73 -58 0 -81 -20 -123 -102
-40 -80 -35 -81 -89 23 -19 37 -41 69 -50 73 -21 8 -92 6 -124 -3z"/>
<path d="M2736 1090 c-39 -12 -94 -67 -101 -100 -14 -64 45 -135 135 -165 42
-14 51 -21 48 -38 -6 -46 -84 -27 -119 29 -36 58 -86 37 -73 -31 11 -60 40
-84 114 -97 126 -21 226 19 251 101 23 77 -10 124 -114 163 -47 18 -63 29 -65
46 -5 34 29 28 78 -13 44 -37 68 -43 88 -23 35 35 -14 129 -66 127 -15 0 -54
2 -87 5 -33 3 -73 1 -89 -4z"/>
<path d="M4359 1086 c-26 -7 -52 -16 -58 -20 -18 -11 -13 -40 9 -54 34 -21 23
-31 -28 -25 -78 9 -153 -46 -168 -123 -13 -70 46 -164 114 -181 15 -3 44 0 69
9 36 13 43 13 43 2 0 -10 12 -14 38 -13 81 1 147 45 110 73 -15 11 -18 35 -20
177 l-3 164 -30 2 c-16 1 -51 -4 -76 -11z m-34 -197 c9 -38 -2 -116 -17 -125
-17 -11 -38 26 -38 67 0 79 41 122 55 58z"/>
<path d="M2133 979 c-38 -11 -44 -39 -13 -60 25 -17 121 -226 113 -246 -4 -10
-11 -5 -24 16 -22 37 -59 41 -89 11 -27 -27 -25 -46 9 -81 52 -51 138 -32 193
42 11 14 38 77 61 140 35 93 48 116 70 127 35 17 36 49 1 58 -32 8 -103 -1
-117 -15 -7 -7 -7 -18 1 -35 11 -24 6 -66 -8 -66 -13 0 -29 48 -23 70 4 16 0
27 -12 36 -21 16 -113 17 -162 3z"/>
<path d="M3100 984 c-82 -27 -100 -37 -100 -56 0 -11 8 -22 20 -25 18 -5 20
-14 20 -104 0 -88 -2 -101 -22 -121 -16 -16 -18 -25 -11 -37 16 -25 64 -44
123 -49 45 -3 60 0 80 16 l25 20 -22 24 c-32 34 -29 38 20 32 55 -8 97 13 132
63 20 31 25 50 25 101 0 61 -2 66 -39 103 -41 42 -74 49 -127 29 -19 -8 -30
-8 -38 0 -10 10 -59 12 -86 4z m134 -122 c11 -40 -4 -96 -27 -100 -15 -3 -17
5 -17 61 0 35 3 67 7 71 13 12 28 0 37 -32z"/>
<path d="M3495 973 c-100 -53 -124 -158 -54 -238 55 -63 166 -72 229 -19 53
45 28 95 -30 60 -37 -21 -56 -20 -80 4 -33 33 -24 40 53 40 82 0 97 9 97 56 0
86 -127 144 -215 97z m89 -59 c8 -21 -1 -34 -25 -34 -12 0 -19 7 -19 18 0 34
33 45 44 16z"/>
<path d="M3785 974 c-71 -22 -83 -36 -57 -68 17 -22 19 -36 15 -89 -3 -34 -9
-66 -14 -72 -44 -47 60 -85 150 -54 29 10 32 15 26 38 -12 44 -16 145 -6 160
5 8 16 11 25 8 13 -5 16 -21 16 -76 0 -38 -4 -73 -10 -76 -17 -10 -11 -44 9
-55 25 -13 112 -13 145 0 27 10 32 29 16 58 -5 9 -12 56 -15 104 -6 81 -9 90
-37 113 -37 31 -94 34 -131 5 -25 -20 -25 -20 -30 0 -6 24 -32 25 -102 4z"/>
<path d="M4575 981 c-85 -35 -75 -144 16 -181 16 -7 29 -19 29 -26 0 -19 -4
-18 -49 8 -64 37 -91 6 -52 -58 18 -29 24 -32 94 -39 59 -5 81 -3 106 9 31 17
61 61 61 92 0 20 -54 73 -99 97 -24 13 -31 21 -24 28 8 8 20 5 41 -11 39 -29
66 -23 69 15 5 53 -18 69 -100 71 -39 2 -81 -1 -92 -5z"/>
</g>
</svg>
